#!OML:ASF H:\Terrain\Patient Classification 1\Terrain2\Thursday\justin.ASF
:FULLY-SPECIFIED
:DEGREES
1726
root 12.4553 17.9694 -0.058854 183.812 85.7497 -178.895
lowerback 11.5288 -0.403451 -0.786861
upperback 4.05351 -0.346361 2.83287
thorax -2.20385 -0.110521 3.43509
lowerneck -14.9772 -3.61233 -8.83156
upperneck 35.1402 -3.21694 5.19313
head 14.9909 -1.42832 3.29239
rclavicle 1.2921e-014 -1.59028e-015
rhumerus -32.0376 -12.1278 -76.8626
rradius 30.4526
rwrist -8.10161
rhand -20.8066 12.9344
rfingers 7.12502
rthumb 5.56105 -16.9727
lclavicle 1.2921e-014 -1.59028e-015
lhumerus -34.141 8.38619 83.8585
lradius 30.3144
lwrist 0.808071
lhand -19.2955 22.1505
lfingers 7.12502
lthumb 7.01991 -307.986
rfemur -60.1926 -9.72916 21.3289
rtibia 71.9539
rfoot -14.1245 4.40156
rtoes 5.51004
lfemur 19.3085 -7.16511 -21.8511
ltibia -3.18055e-015
lfoot 4.60707 -7.86479
ltoes 1.84693
1727
root 12.5852 18.0456 -0.0291664 192.282 85.863 -170.66
lowerback 11.6615 -0.410574 -0.187302
upperback 3.93643 -0.274218 3.07432
thorax -2.40591 -0.06923 3.34077
lowerneck -14.8515 -3.54696 -9.00774
upperneck 34.8756 -3.14019 5.32899
head 14.8356 -1.40361 3.38269
rclavicle 1.98785e-015 1.19271e-014
rhumerus -32.0741 -12.2528 -76.7274
rradius 29.8766
rwrist -7.7045
rhand -20.9353 12.7281
rfingers 7.12502
rthumb 5.43686 -17.1822
lclavicle 1.98785e-015 1.19271e-014
lhumerus -34.6368 8.2745 83.8989
lradius 29.9655
lwrist 0.991027
lhand -19.6701 22.1831
lfingers 7.12502
lthumb 6.65832 -307.942
rfemur -59.5102 -9.36345 22.1703
rtibia 71.3896
rfoot -14.4103 4.16653
rtoes 7.40493
lfemur 19.2633 -7.02572 -20.9669
ltibia 4.77083e-014
lfoot 6.595 -7.97161
ltoes 1.31382
1728
root 12.7302 18.1268 -0.00962161 199.964 85.963 -163.208
lowerback 11.5597 -0.491328 0.395094
upperback 3.90721 -0.303359 3.3198
thorax -2.38176 -0.0806461 3.2705
lowerneck -14.9362 -3.37852 -9.16691
upperneck 34.7826 -2.8403 5.31757
head 14.7853 -1.30098 3.45196
rclavicle -1.21259e-014 4.05521e-014
rhumerus -31.9355 -11.8611 -76.659
rradius 29.3023
rwrist -7.90006
rhand -20.797 12.7926
rfingers 7.12502
rthumb 5.5703 -17.1142
lclavicle -1.21259e-014 4.05521e-014
lhumerus -35.0843 8.74002 83.8691
lradius 29.5515
lwrist 0.971645
lhand -19.4082 21.943
lfingers 7.12502
lthumb 6.9111 -308.19
rfemur -58.7214 -9.08475 22.8336
rtibia 70.8257
rfoot -14.5863 4.34505
rtoes 9.8014
lfemur 19.2787 -6.82965 -20.2227
ltibia 3.49861e-014
lfoot 8.71067 -7.82118
ltoes 2.45706
1729
root 12.8795 18.2052 0.000366914 198.589 86.2235 -164.843
lowerback 11.3635 -0.568509 0.47794
upperback 3.87864 -0.403674 3.31882
thorax -2.29972 -0.132073 3.23328
lowerneck -15.1797 -3.27333 -9.35746
upperneck 34.8859 -2.58473 5.26093
head 14.8693 -1.22714 3.50911
rclavicle -8.74653e-015 5.56597e-015
rhumerus -31.7238 -11.6646 -76.641
rradius 28.5898
rwrist -8.06774
rhand -20.8371 12.9592
rfingers 7.12502
rthumb 5.53158 -16.9486
lclavicle -8.74653e-015 5.56597e-015
lhumerus -35.5275 9.28803 83.6647
lradius 29.067
lwrist 0.639092
lhand -19.1147 21.7743
lfingers 7.12502
lthumb 7.19448 -308.368
rfemur -58.1154 -9.09243 22.7692
rtibia 70.3401
rfoot -14.6153 4.72288
rtoes 11.3497
lfemur 19.2148 -6.64163 -20.2963
ltibia 3.18055e-014
lfoot 10.8492 -7.7674
ltoes 1.99609
1730
root 13.0241 18.2832 0.00839556 193.692 86.5514 -169.977
lowerback 11.2411 -0.514223 0.32055
upperback 3.83563 -0.358914 3.25289
thorax -2.27924 -0.112497 3.24625
lowerneck -15.2989 -3.34548 -9.5273
upperneck 34.8669 -2.62712 5.24123
head 14.8976 -1.27201 3.52248
rclavicle 6.36111e-015 -3.89618e-014
rhumerus -31.5341 -12.2702 -76.3608
rradius 27.7369
rwrist -7.57062
rhand -21.1081 12.8523
rfingers 7.12502
rthumb 5.27 -17.0621
lclavicle 6.36111e-015 -3.89618e-014
lhumerus -35.8417 9.23332 83.6508
lradius 28.5011
lwrist 0.178428
lhand -19.0329 22.1209
lfingers 7.12502
lthumb 7.27338 -308.024
rfemur -57.5696 -9.1831 22.5019
rtibia 69.8694
rfoot -14.6327 4.91858
rtoes 12.0884
lfemur 19.1212 -6.43408 -20.6061
ltibia -2.22639e-014
lfoot 13.1255 -7.44461
ltoes 2.55589
1731
root 13.1621 18.3668 0.0300719 196.312 86.6216 -167.702
lowerback 11.0727 -0.472966 0.545315
upperback 3.73112 -0.281911 3.33721
thorax -2.30115 -0.0745188 3.19579
lowerneck -15.3171 -3.40437 -9.41097
upperneck 34.7728 -2.72328 5.14123
head 14.8629 -1.31173 3.43874
rclavicle -9.74045e-015 2.3059e-014
rhumerus -31.4945 -12.8495 -76.0983
rradius 27.1943
rwrist -7.16631
rhand -20.6666 12.5104
rfingers 7.12502
rthumb 5.69627 -17.393
lclavicle -9.74045e-015 2.3059e-014
lhumerus -36.1246 8.63887 83.8379
lradius 27.9426
lwrist 0.146545
lhand -19.3595 21.9564
lfingers 7.12502
lthumb 6.95809 -308.178
rfemur -57.0396 -9.09722 22.8041
rtibia 69.3023
rfoot -14.7216 4.65926
rtoes 13.0061
lfemur 18.8121 -6.36678 -20.2616
ltibia -3.81667e-014
lfoot 15.6687 -6.89527
ltoes 3.00674
1732
root 13.3005 18.4503 0.0655594 205.363 86.4539 -159.023
lowerback 10.9177 -0.549015 1.21009
upperback 3.55341 -0.30968 3.44824
thorax -2.40365 -0.0871842 2.9386
lowerneck -15.3048 -3.29743 -9.07602
upperneck 34.7476 -2.62705 5.00556
head 14.8266 -1.24503 3.33732
rclavicle -3.57812e-015 -7.15625e-015
rhumerus -31.6427 -12.91 -76.1996
rradius 26.9522
rwrist -7.17232
rhand -20.4642 12.296
rfingers 7.12502
rthumb 5.89169 -17.6021
lclavicle -3.57812e-015 -7.15625e-015
lhumerus -36.5542 8.21293 83.7373
lradius 27.4252
lwrist -0.101049
lhand -19.8303 21.6463
lfingers 7.12502
lthumb 6.50364 -308.474
rfemur -56.479 -8.88774 23.6168
rtibia 68.6892
rfoot -14.9409 4.18509
rtoes 13.7052
lfemur 18.3988 -6.37921 -19.386
ltibia -9.54166e-015
lfoot 18.508 -6.39466
ltoes 2.63702
1733
root 13.4457 18.5273 0.0910803 208.338 86.4614 -156.225
lowerback 10.8583 -0.599091 1.49899
upperback 3.44191 -0.346526 3.45774
thorax -2.48754 -0.106142 2.79008
lowerneck -15.2955 -3.15601 -8.88811
upperneck 34.7637 -2.46036 4.95827
head 14.8093 -1.15545 3.31308
rclavicle 9.74045e-015 1.43125e-014
rhumerus -31.7302 -13.1241 -76.2031
rradius 26.5898
rwrist -7.09849
rhand -20.2837 12.3506
rfingers 7.12502
rthumb 6.06589 -17.5425
lclavicle 9.74045e-015 1.43125e-014
lhumerus -36.9626 7.94356 83.6115
lradius 26.9561
lwrist -0.653437
lhand -19.452 21.7756
lfingers 7.12502
lthumb 6.86881 -308.356
rfemur -55.7053 -8.74152 23.9634
rtibia 68.0631
rfoot -15.2509 3.68614
rtoes 12.0961
lfemur 18.2178 -6.32384 -19.0072
ltibia 4.77083e-014
lfoot 21.5262 -5.89493
ltoes 3.76788
1734
root 13.586 18.6134 0.108626 207.805 86.6872 -156.913
lowerback 10.7929 -0.606788 1.43915
upperback 3.37154 -0.367827 3.44654
thorax -2.52367 -0.118406 2.81468
lowerneck -15.3751 -3.07549 -8.8279
upperneck 34.8065 -2.34797 4.93839
head 14.8348 -1.10309 3.31483
rclavicle -4.96962e-015 4.29375e-014
rhumerus -31.6564 -13.7598 -75.9537
rradius 26.0983
rwrist -6.55619
rhand -19.6277 12.3479
rfingers 7.12502
rthumb 6.69926 -17.5261
lclavicle -4.96962e-015 4.29375e-014
lhumerus -37.2709 7.45691 83.7026
lradius 26.5671
lwrist -0.725668
lhand -18.7699 22.0187
lfingers 7.12502
lthumb 7.52727 -308.135
rfemur -54.8215 -8.41146 23.698
rtibia 67.547
rfoot -15.5049 4.06993
rtoes 14.5165
lfemur 17.991 -6.16471 -18.9687
ltibia -2.22639e-014
lfoot 24.6483 -5.06854
ltoes 6.05226
1735
root 13.7171 18.6917 0.127642 213.36 86.6797 -151.598
lowerback 10.6719 -0.646131 1.62116
upperback 3.27376 -0.390144 3.7055
thorax -2.55747 -0.128513 2.98473
lowerneck -15.4586 -3.0332 -9.02404
upperneck 34.8058 -2.185 4.8412
head 14.8429 -1.07447 3.33571
rclavicle 7.95139e-015 -1.51076e-014
rhumerus -31.4925 -14.0569 -75.5592
rradius 25.6075
rwrist -5.89847
rhand -19.4831 12.0204
rfingers 7.12502
rthumb 6.8388 -17.8492
lclavicle 7.95139e-015 -1.51076e-014
lhumerus -37.5781 7.21257 84.0415
lradius 26.214
lwrist -0.506203
lhand -18.8096 22.2922
lfingers 7.12502
lthumb 7.48893 -307.86
rfemur -54.0975 -8.32336 24.0915
rtibia 66.8654
rfoot -15.7087 4.41387
rtoes 15.1122
lfemur 17.6145 -6.04065 -18.4315
ltibia -2.8625e-014
lfoot 27.7603 -3.48875
ltoes 10.1385
1736
root 13.8497 18.7816 0.146847 216.886 86.5959 -148.171
lowerback 10.6552 -0.706278 1.71203
upperback 3.20291 -0.440835 4.01369
thorax -2.61803 -0.151141 3.2632
lowerneck -15.4757 -2.98038 -9.36917
upperneck 34.7785 -1.93869 4.68099
head 14.8189 -1.03783 3.36913
rclavicle -8.34896e-015 -4.21423e-014
rhumerus -31.417 -13.6471 -75.247
rradius 25.3178
rwrist -5.87875
rhand -19.5043 11.8455
rfingers 7.12502
rthumb 6.81837 -18.0248
lclavicle -8.34896e-015 -4.21423e-014
lhumerus -37.9205 7.2829 84.4282
lradius 25.9308
lwrist -0.696006
lhand -18.5576 22.3283
lfingers 7.12502
lthumb 7.73218 -307.833
rfemur -53.1317 -8.19766 24.3524
rtibia 66.135
rfoot -16.1299 4.37372
rtoes 14.4152
lfemur 17.4052 -6.02391 -17.9438
ltibia -6.36111e-014
lfoot 30.4415 -1.3463
ltoes 15.3202
1737
root 13.9844 18.8769 0.169487 212.071 86.8059 -152.956
lowerback 10.7717 -0.775074 1.40564
upperback 3.15335 -0.561493 3.99801
thorax -2.72506 -0.211693 3.43844
lowerneck -15.4898 -2.93554 -9.4556
upperneck 34.7245 -1.80535 4.55546
head 14.7858 -1.01086 3.35116
rclavicle 4.37326e-015 2.62396e-014
rhumerus -31.4996 -13.1647 -75.3098
rradius 25.3811
rwrist -5.9334
rhand -19.3336 11.6882
rfingers 7.12502
rthumb 6.98315 -18.1766
lclavicle 4.37326e-015 2.62396e-014
lhumerus -38.2836 7.28743 84.4295
lradius 25.7224
lwrist -1.83274
lhand -17.1176 21.9791
lfingers 7.12502
lthumb 9.12187 -308.238
rfemur -52.0538 -8.03416 24.1798
rtibia 65.0768
rfoot -16.4936 3.08015
rtoes 7.09281
lfemur 16.104 -5.98829 -18.1397
ltibia 2.50906
lfoot 31.4987 -0.486011
ltoes 16.7097
